<mxfile host="app.diagrams.net" modified="2021-01-24T08:57:26.234Z" agent="5.0 (Windows NT 10.0; Win64; x64) AppleWebKit/537.36 (KHTML, like Gecko) Chrome/87.0.4280.141 Safari/537.36" etag="A0SMMe45yEYV8E1ZWQtB" version="14.2.7" type="github">
  <diagram id="T89XPPoivCCFEeKoEIFi" name="第 1 页">
    <mxGraphModel dx="301" dy="831" grid="1" gridSize="10" guides="1" tooltips="1" connect="1" arrows="1" fold="1" page="1" pageScale="1" pageWidth="827" pageHeight="1169" math="0" shadow="0">
      <root>
        <mxCell id="0" />
        <mxCell id="1" parent="0" />
        <mxCell id="WCGk1mYOTGd77UesOvjc-1" value="" style="edgeStyle=none;html=1;fontColor=#000000;strokeWidth=3;strokeColor=#000000;" parent="1" edge="1">
          <mxGeometry width="100" height="100" relative="1" as="geometry">
            <mxPoint x="2210" y="1598.25" as="sourcePoint" />
            <mxPoint x="2211" y="947.75" as="targetPoint" />
          </mxGeometry>
        </mxCell>
        <mxCell id="WCGk1mYOTGd77UesOvjc-2" value="" style="edgeStyle=none;html=1;fontColor=#000000;strokeWidth=3;strokeColor=#000000;" parent="1" edge="1">
          <mxGeometry width="100" height="100" relative="1" as="geometry">
            <mxPoint x="2208.5" y="1600" as="sourcePoint" />
            <mxPoint x="3030.5" y="1600" as="targetPoint" />
          </mxGeometry>
        </mxCell>
        <mxCell id="WCGk1mYOTGd77UesOvjc-6" value="" style="whiteSpace=wrap;gradientColor=none;gradientDirection=east;strokeColor=none;html=1;fontColor=#23445d;fillColor=#009a00;" parent="1" vertex="1">
          <mxGeometry x="2979.25" y="1120" width="35.000000000000114" height="30.000000000000227" as="geometry" />
        </mxCell>
        <mxCell id="WCGk1mYOTGd77UesOvjc-7" value="" style="whiteSpace=wrap;gradientColor=none;gradientDirection=east;strokeColor=none;html=1;fontColor=#23445d;fillColor=#F08705;" parent="1" vertex="1">
          <mxGeometry x="2979.2499999999995" y="1080" width="35.000000000000114" height="30.000000000000227" as="geometry" />
        </mxCell>
        <mxCell id="WCGk1mYOTGd77UesOvjc-8" value="" style="whiteSpace=wrap;gradientColor=none;gradientDirection=east;strokeColor=none;html=1;fontColor=#23445d;fillColor=#0078b9;" parent="1" vertex="1">
          <mxGeometry x="2979.25" y="1040" width="35.000000000000114" height="30.000000000000114" as="geometry" />
        </mxCell>
        <mxCell id="WCGk1mYOTGd77UesOvjc-12" value="&lt;font style=&quot;font-size: 30px&quot;&gt;communication/computation&lt;/font&gt;" style="text;spacingTop=-5;html=1;fontSize=24;fontStyle=0;points=[];textDirection=ltr;align=right;verticalAlign=top;horizontal=0;" parent="1" vertex="1">
          <mxGeometry x="2099" y="951" width="80" height="20" as="geometry" />
        </mxCell>
        <mxCell id="WCGk1mYOTGd77UesOvjc-14" value="" style="rounded=0;whiteSpace=wrap;html=1;fillColor=#0078B9;" parent="1" vertex="1">
          <mxGeometry x="2483" y="1528.75" width="32.5" height="69.5" as="geometry" />
        </mxCell>
        <mxCell id="WCGk1mYOTGd77UesOvjc-22" value="&lt;font style=&quot;font-size: 30px&quot;&gt;2.00&lt;/font&gt;" style="text;spacingTop=-5;align=center;verticalAlign=middle;fontStyle=0;html=1;fontSize=18;points=[];labelBackgroundColor=none;labelBorderColor=none;rounded=0;" parent="1" vertex="1">
          <mxGeometry x="2157" y="1261" width="30" height="40" as="geometry" />
        </mxCell>
        <mxCell id="WCGk1mYOTGd77UesOvjc-24" value="&lt;font style=&quot;font-size: 30px&quot;&gt;1.00&lt;/font&gt;" style="text;spacingTop=-5;align=center;verticalAlign=middle;fontStyle=0;html=1;fontSize=18;points=[];labelBackgroundColor=none;labelBorderColor=none;rounded=0;" parent="1" vertex="1">
          <mxGeometry x="2157" y="1421" width="30" height="40" as="geometry" />
        </mxCell>
        <mxCell id="WCGk1mYOTGd77UesOvjc-26" value="&lt;font style=&quot;font-size: 30px&quot;&gt;0.00&lt;/font&gt;" style="text;spacingTop=-5;align=center;verticalAlign=middle;fontStyle=0;html=1;fontSize=18;points=[];labelBackgroundColor=none;labelBorderColor=none;rounded=0;" parent="1" vertex="1">
          <mxGeometry x="2157" y="1579.5" width="30" height="40" as="geometry" />
        </mxCell>
        <mxCell id="WCGk1mYOTGd77UesOvjc-27" value="" style="rounded=0;whiteSpace=wrap;html=1;fillColor=#F08705;" parent="1" vertex="1">
          <mxGeometry x="2515.5" y="1348.75" width="54.5" height="249.5" as="geometry" />
        </mxCell>
        <mxCell id="WCGk1mYOTGd77UesOvjc-28" value="" style="rounded=0;whiteSpace=wrap;html=1;fillColor=#009A00;" parent="1" vertex="1">
          <mxGeometry x="2548" y="1328.75" width="32.5" height="269.5" as="geometry" />
        </mxCell>
        <mxCell id="WCGk1mYOTGd77UesOvjc-29" value="" style="rounded=0;whiteSpace=wrap;html=1;fillColor=#0078B9;" parent="1" vertex="1">
          <mxGeometry x="2604.25" y="1528.75" width="32.5" height="69.5" as="geometry" />
        </mxCell>
        <mxCell id="WCGk1mYOTGd77UesOvjc-30" value="" style="rounded=0;whiteSpace=wrap;html=1;fillColor=#F08705;" parent="1" vertex="1">
          <mxGeometry x="2636.75" y="1348.75" width="32.5" height="249.5" as="geometry" />
        </mxCell>
        <mxCell id="WCGk1mYOTGd77UesOvjc-31" value="" style="rounded=0;whiteSpace=wrap;html=1;fillColor=#009A00;" parent="1" vertex="1">
          <mxGeometry x="2669.25" y="1328.75" width="32.5" height="269.5" as="geometry" />
        </mxCell>
        <mxCell id="WCGk1mYOTGd77UesOvjc-32" value="" style="rounded=0;whiteSpace=wrap;html=1;fillColor=#0078B9;" parent="1" vertex="1">
          <mxGeometry x="2726.25" y="1448.75" width="32.5" height="149.5" as="geometry" />
        </mxCell>
        <mxCell id="WCGk1mYOTGd77UesOvjc-33" value="" style="rounded=0;whiteSpace=wrap;html=1;fillColor=#F08705;" parent="1" vertex="1">
          <mxGeometry x="2758.75" y="1118.75" width="32.5" height="479.5" as="geometry" />
        </mxCell>
        <mxCell id="WCGk1mYOTGd77UesOvjc-34" value="" style="rounded=0;whiteSpace=wrap;html=1;fillColor=#009A00;" parent="1" vertex="1">
          <mxGeometry x="2791.25" y="1058.75" width="32.5" height="539.5" as="geometry" />
        </mxCell>
        <mxCell id="DEcqkY3-tAxHTdAIMPjW-2" value="&lt;font style=&quot;font-size: 30px&quot;&gt;3.00&lt;/font&gt;" style="text;spacingTop=-5;align=center;verticalAlign=middle;fontStyle=0;html=1;fontSize=18;points=[];labelBackgroundColor=none;labelBorderColor=none;rounded=0;" parent="1" vertex="1">
          <mxGeometry x="2157" y="1102" width="30" height="40" as="geometry" />
        </mxCell>
        <mxCell id="DEcqkY3-tAxHTdAIMPjW-6" value="" style="rounded=0;whiteSpace=wrap;html=1;fillColor=#0078B9;" parent="1" vertex="1">
          <mxGeometry x="2846.25" y="1431" width="32.5" height="167.25" as="geometry" />
        </mxCell>
        <mxCell id="DEcqkY3-tAxHTdAIMPjW-7" value="" style="rounded=0;whiteSpace=wrap;html=1;fillColor=#F08705;" parent="1" vertex="1">
          <mxGeometry x="2878.75" y="1021" width="32.5" height="577.25" as="geometry" />
        </mxCell>
        <mxCell id="DEcqkY3-tAxHTdAIMPjW-8" value="" style="rounded=0;whiteSpace=wrap;html=1;fillColor=#009A00;" parent="1" vertex="1">
          <mxGeometry x="2911.25" y="961" width="32.5" height="637.25" as="geometry" />
        </mxCell>
        <mxCell id="DEcqkY3-tAxHTdAIMPjW-10" value="" style="rounded=0;whiteSpace=wrap;html=1;fillColor=#0078B9;" parent="1" vertex="1">
          <mxGeometry x="2234.5" y="1528.75" width="32.5" height="69.5" as="geometry" />
        </mxCell>
        <mxCell id="DEcqkY3-tAxHTdAIMPjW-11" value="" style="rounded=0;whiteSpace=wrap;html=1;fillColor=#F08705;" parent="1" vertex="1">
          <mxGeometry x="2267" y="1348.75" width="32.5" height="249.5" as="geometry" />
        </mxCell>
        <mxCell id="DEcqkY3-tAxHTdAIMPjW-12" value="" style="rounded=0;whiteSpace=wrap;html=1;fillColor=#009A00;" parent="1" vertex="1">
          <mxGeometry x="2299.5" y="1328.75" width="32.5" height="269.5" as="geometry" />
        </mxCell>
        <mxCell id="DEcqkY3-tAxHTdAIMPjW-15" value="4.00" style="text;spacingTop=-5;align=center;verticalAlign=middle;fontStyle=0;html=1;fontSize=30;points=[];labelBackgroundColor=none;labelBorderColor=none;rounded=0;" parent="1" vertex="1">
          <mxGeometry x="2157" y="943" width="30" height="40" as="geometry" />
        </mxCell>
        <mxCell id="DEcqkY3-tAxHTdAIMPjW-18" value="" style="rounded=0;whiteSpace=wrap;html=1;fillColor=#0078B9;" parent="1" vertex="1">
          <mxGeometry x="2360" y="1528.75" width="32.5" height="69.5" as="geometry" />
        </mxCell>
        <mxCell id="DEcqkY3-tAxHTdAIMPjW-19" value="" style="rounded=0;whiteSpace=wrap;html=1;fillColor=#F08705;" parent="1" vertex="1">
          <mxGeometry x="2392.5" y="1348.75" width="54.5" height="249.5" as="geometry" />
        </mxCell>
        <mxCell id="DEcqkY3-tAxHTdAIMPjW-20" value="" style="rounded=0;whiteSpace=wrap;html=1;fillColor=#009A00;" parent="1" vertex="1">
          <mxGeometry x="2425" y="1328.75" width="32.5" height="269.5" as="geometry" />
        </mxCell>
        <mxCell id="nM3WUsBCaV2vc6CB5oBr-1" value="&lt;font style=&quot;font-size: 30px&quot;&gt;8-coflow&lt;/font&gt;" style="text;spacingTop=-5;align=center;verticalAlign=middle;fontStyle=0;html=1;fontSize=18;points=[];strokeColor=none;" vertex="1" parent="1">
          <mxGeometry x="2464" y="1608.5" width="120" height="30" as="geometry" />
        </mxCell>
        <mxCell id="nM3WUsBCaV2vc6CB5oBr-2" value="&lt;font style=&quot;font-size: 30px&quot;&gt;16-coflow&lt;/font&gt;" style="text;spacingTop=-5;align=center;verticalAlign=middle;fontStyle=0;html=1;fontSize=18;points=[];strokeColor=none;" vertex="1" parent="1">
          <mxGeometry x="2585" y="1608.75" width="120" height="30" as="geometry" />
        </mxCell>
        <mxCell id="nM3WUsBCaV2vc6CB5oBr-3" value="&lt;font style=&quot;font-size: 30px&quot;&gt;20-coflow&lt;/font&gt;" style="text;spacingTop=-5;align=center;verticalAlign=middle;fontStyle=0;html=1;fontSize=18;points=[];strokeColor=none;" vertex="1" parent="1">
          <mxGeometry x="2719" y="1608.75" width="120" height="30" as="geometry" />
        </mxCell>
        <mxCell id="nM3WUsBCaV2vc6CB5oBr-4" value="&lt;font style=&quot;font-size: 30px&quot;&gt;24-coflow&lt;/font&gt;" style="text;spacingTop=-5;align=center;verticalAlign=middle;fontStyle=0;html=1;fontSize=18;points=[];strokeColor=none;" vertex="1" parent="1">
          <mxGeometry x="2852" y="1608.75" width="120" height="30" as="geometry" />
        </mxCell>
        <mxCell id="nM3WUsBCaV2vc6CB5oBr-5" value="&lt;font style=&quot;font-size: 30px&quot;&gt;R&lt;sup&gt;2&lt;/sup&gt;SP&lt;/font&gt;" style="text;spacingTop=-5;align=center;verticalAlign=middle;fontStyle=0;html=1;fontSize=18;points=[];strokeColor=none;" vertex="1" parent="1">
          <mxGeometry x="2215.25" y="1606.5" width="120" height="30" as="geometry" />
        </mxCell>
        <mxCell id="nM3WUsBCaV2vc6CB5oBr-6" value="&lt;font style=&quot;font-size: 30px&quot;&gt;2-coflow&lt;/font&gt;" style="text;spacingTop=-5;align=center;verticalAlign=middle;fontStyle=0;html=1;fontSize=30;points=[];strokeColor=none;" vertex="1" parent="1">
          <mxGeometry x="2341.25" y="1607.5" width="120" height="30" as="geometry" />
        </mxCell>
        <mxCell id="nM3WUsBCaV2vc6CB5oBr-10" value="&lt;font style=&quot;font-size: 30px&quot;&gt;AlexNet&lt;/font&gt;" style="text;spacingTop=-5;html=1;points=[];fontSize=15;" vertex="1" parent="1">
          <mxGeometry x="3025.25" y="1078" width="80" height="20" as="geometry" />
        </mxCell>
        <mxCell id="nM3WUsBCaV2vc6CB5oBr-11" value="&lt;font style=&quot;font-size: 30px&quot;&gt;ResNet50&lt;/font&gt;" style="text;spacingTop=-5;html=1;points=[];fontSize=30;" vertex="1" parent="1">
          <mxGeometry x="3025.25" y="1038" width="80" height="20" as="geometry" />
        </mxCell>
        <mxCell id="nM3WUsBCaV2vc6CB5oBr-12" value="&lt;font style=&quot;font-size: 30px&quot;&gt;VGG-16&lt;/font&gt;" style="text;spacingTop=-5;html=1;points=[];fontSize=15;" vertex="1" parent="1">
          <mxGeometry x="3025.25" y="1118" width="80" height="20" as="geometry" />
        </mxCell>
      </root>
    </mxGraphModel>
  </diagram>
</mxfile>
